<?xml version="1.0" encoding="utf-8" ?><svg xmlns="http://www.w3.org/2000/svg" xmlns:xlink="http://www.w3.org/1999/xlink" width="1024" height="1024" viewBox="0 0 1024 1024"><path fill="white" d="M0 0L1024 0L1024 1024L0 1024L0 0Z"/><path d="M512.334 130.95C522.128 120.791 530.737 115.493 544.722 111.804C551.703 110.011 558.896 109.172 566.102 109.311C609.947 110.163 679.026 137.283 716.965 158.397C820.232 215.87 894.424 325.052 912.383 441.584C914.927 458.091 916.196 473.525 909.196 489.305C905.414 497.833 899.932 504.327 895.338 512.263C903.315 526.922 912.027 532.863 914.042 552.69C915.582 566.149 913.047 579.757 910.69 593.018C881.436 757.654 739.923 894.17 573.14 913.945C546.385 915.402 532.669 910.142 512.189 893.229C484.76 918.552 461.156 915.942 426.954 909.565C263.741 879.131 129.855 740.104 110.537 574.491C107.384 547.459 110.336 533.537 127.364 512.076C106.153 481.074 106.535 469.783 112.916 433.016C141.889 266.052 283.385 128.26 452.779 109.697C454.773 109.488 456.774 109.359 458.778 109.311C480.573 108.667 496.801 116.36 512.334 130.95Z"/><path fill="white" d="M456.341 143.193C458.024 142.877 462.048 142.741 463.777 142.961C482.486 145.342 494.261 158.158 494.541 176.856C482.526 177.683 470.577 178.389 458.665 180.195C393.832 189.633 333.271 218.142 284.687 262.097C241.316 302.012 211.969 347.716 193.058 403.655C188.882 416.082 184.866 429.276 183.677 442.37C182.831 451.694 192.009 459.393 201.027 458.935C206.94 458.584 212.227 455.131 214.925 449.857C217.033 445.728 218.3 436.455 219.678 431.582C221.529 425.039 223.469 418.686 225.557 412.204C238.282 373.783 258.887 338.441 286.052 308.439C341.584 247.739 412.819 214.428 494.932 210.797C495.296 245.187 495.545 283.073 494.643 317.407C468.733 319.898 443.592 327.591 420.725 340.025C412.385 344.51 398.777 350.561 396.222 359.876C395.073 364.014 395.65 368.441 397.821 372.146C401.68 378.751 411.572 383.011 418.749 379.605C426.233 376.053 432.948 371.208 440.429 367.451C463.691 355.978 489.307 350.082 515.244 350.232C524.404 350.35 532.38 350.801 541.364 352.622C547.577 353.882 553.908 354.748 559.487 350.942C563.488 348.213 566.19 343.958 566.96 339.177C570.099 318.492 542.678 319.075 528.848 317.4L528.614 286.619L528.497 209.211C528.492 197.108 527.629 180.799 529.366 169.334C532.257 150.255 552.081 141.386 569.565 143.637C581.878 145.223 591.731 147.033 603.613 149.755C671.622 165.944 733.598 201.206 782.259 251.4C828.892 298.791 865.39 368.572 876.77 434.102C878.141 441.996 880.852 457.684 880.725 465.613C880.617 474.027 877.111 482.04 871.003 487.828C862.459 496.031 853.093 496.213 841.976 496.137C820.077 495.989 798.047 496.701 776.161 496.27C773.863 474.008 772.591 455.166 765.612 433.507C764.172 429.228 762.91 423.563 760.359 419.878C752.894 409.093 735.117 412.201 731.306 424.719C729.084 432.019 732.017 437.617 734.032 444.133C746.935 485.85 747.507 531.208 735.292 573.161C733.907 577.921 731.807 583.961 731.094 588.727C730.381 593.524 731.653 598.404 734.617 602.243C737.369 605.691 741.366 607.919 745.746 608.447C750.057 608.926 754.707 607.447 758.067 604.734C769.782 595.272 774.046 544.348 775.564 529.165C790.22 528.592 805.206 529.63 819.88 529.26C826.01 529.106 833.998 529.707 839.895 529.136C864.503 526.753 883.19 538.35 880.396 566.056C872.557 643.767 833.982 720.145 779.336 775.518C733.329 822.044 675.756 855.469 612.541 872.355C597.469 876.382 580.345 880.006 564.674 880.427C555.127 880.684 545.439 876.629 538.681 869.798C534.267 865.349 531.259 859.7 530.03 853.554C528.572 846.302 529.156 814.211 529.183 805.313L529.52 704.144C582.809 701.455 630.569 671.494 664.052 631.337C673.577 639.849 682.506 647.485 692.098 655.791C686.432 662.575 679.913 666.9 679.496 676.042C679.236 680.853 680.957 685.562 684.258 689.072C687.454 692.404 691.917 694.218 696.531 694.06C699.576 693.969 702.766 693.303 705.329 691.534C712.71 686.743 717.658 678.444 723.47 672.219C743.431 650.844 723.918 639.781 707.978 625.992L682.41 603.705C687.65 594.69 693.893 579.018 697.134 568.937C709.534 529.504 708.887 487.124 695.289 448.089C691.078 436.042 686.292 426.309 680.492 414.983C689.836 406.095 726.951 379.834 730.181 371.93C731.781 368.014 732.019 363.128 730.339 359.215C726.59 350.48 717.57 341.565 711.031 334.641C689.627 311.976 665.149 291.91 637.397 277.442C624.956 270.957 612.072 265.849 599.018 260.774C598.08 254.669 598.927 228.982 599.33 221.946C623.024 228.119 644.959 238.683 666.256 250.584C702.748 270.977 735.056 301.238 759.083 335.268C778.709 362.811 791.439 388.426 801.372 421C804.516 431.31 806.23 443.103 809.568 453.205C810.749 456.779 815.935 460.55 820.004 461.574C824.505 462.74 829.289 461.959 833.185 459.421C843.837 452.362 839.793 439.464 837.532 429.197C828.861 389.837 810.916 350.726 787.899 317.798C747.851 260.07 690.322 216.731 623.787 194.163C615.179 191.255 606.626 188.744 597.816 186.451C590.162 184.459 580.782 180.969 573.596 186.163C563.932 193.149 565.229 203.481 565.487 213.875C565.605 218.661 565.643 223.562 565.638 228.365L565.495 256.895C565.421 268.118 563.322 283.116 575.692 288.861C580.125 290.92 585.125 292.364 589.769 293.944C595.295 295.836 600.747 297.935 606.114 300.237C635.535 312.744 671.613 337.844 691.29 362.734C684.856 368.958 668.851 381.255 661.349 387.155C660.044 385.611 658.696 384.105 657.305 382.639C648.325 373.165 638.55 365.185 628.085 357.117C620.081 350.946 609.822 346.58 601.076 355.073C597.533 358.514 596.144 362.656 596.241 367.541C596.426 376.814 602.138 380.253 608.965 385.071C613.028 387.975 617.462 391.109 621.266 394.606C652.11 422.805 670.331 462.213 671.837 503.977C673.947 546.59 658.882 588.269 630.015 619.685C599.824 652.362 557.992 671.64 513.705 671.3C507.914 671.255 499.6 674.051 497.637 680.046C494.649 689.174 496.082 701.982 496.088 711.896L496.175 806.628L496.222 832.864C496.232 846.875 496.98 858.879 486.743 869.968C470.654 887.395 439.853 879.002 419.654 874.064C357.664 858.844 300.637 827.92 254.064 784.271C193.313 726.266 148.895 644.434 142.682 559.147C141.747 546.306 152.343 531.695 164.991 529.523C174.36 527.914 186.594 528.45 196.344 528.453L247.717 528.604C250.623 566.902 259.04 602.714 278.063 636.378C280.666 640.985 283.772 645.848 285.928 650.605L286.171 651.155C276.463 659.337 267.204 668.341 257.759 676.873C243.226 653.899 233.28 635.41 224.614 609.217C222.348 602.149 220.356 594.996 218.643 587.774C217.007 580.567 216.537 571.456 210.457 566.778C206.629 563.826 201.751 562.589 196.98 563.359C192.713 564.078 189.345 566.783 186.784 570.187C182.225 576.248 184.185 584.451 185.639 591.513C196.979 646.577 227.968 702.2 266.746 742.699C285.681 762.213 306.705 779.586 329.438 794.505C358.772 814.004 393.84 828.33 427.838 837.328C438.237 840.081 451.205 844.459 458.063 832.699C460.258 828.877 460.804 824.326 459.576 820.094C456.855 810.968 448.046 808.025 439.714 806.098C409.144 799.028 381.522 786.3 354.427 770.894C363.343 761.032 373.035 751.922 382.376 742.47C384.879 739.938 387.513 737.473 389.48 734.48C390.965 732.186 391.841 729.552 392.024 726.826C392.388 722.459 390.994 718.127 388.151 714.792C383.955 709.96 372.734 707.185 368.265 710.873C354.119 722.545 339.866 738.451 326.683 751.069C310.546 738.205 290.194 720.349 277.902 703.876C288.177 694.804 295.47 687.963 304.908 678.02C309.835 683.604 316.726 692.831 324.156 694.663C333.226 696.9 343.203 690.911 344.97 681.514C346.361 674.119 342.54 669.154 337.875 663.944C293.028 617.166 272.217 543.65 281.542 479.814C282.749 471.471 284.443 463.205 286.616 455.059C289.395 444.814 296.482 428.676 290.038 419.472C287.513 415.869 283.62 413.462 279.269 412.814C274.805 412.14 270.258 413.315 266.68 416.069C255.501 424.74 248.756 478.813 246.843 494.67L193.474 494.642C181.101 494.667 164.21 496.731 154.181 489.03C147.924 484.215 143.841 477.108 142.831 469.278C141.687 460.352 144.972 443.279 146.694 434.097C159.924 363.547 197.29 296.469 247.79 245.888C303.854 189.28 377.29 153.119 456.341 143.193Z"/><path fill="#B0D6EC" d="M503.548 418.914L503.117 418.309C494.439 405.948 498.97 390.34 515.57 389.212C519.121 388.971 522.905 389.71 526.421 390.038C640.144 405.033 674.43 553.133 577.386 615.35C519.647 652.12 441.773 631.905 406.056 573.843C389.495 546.405 384.591 513.485 392.436 482.411C397.982 459.705 410.839 438.739 428.234 422.385C439.086 412.182 453.59 399.579 466.684 417.485C468.783 420.356 468.617 424.226 468.488 427.703C479.454 422.992 491.782 421.728 502.689 419.125L503.548 418.914Z"/><path d="M503.548 418.914L503.117 418.309C494.439 405.948 498.97 390.34 515.57 389.212C519.121 388.971 522.905 389.71 526.421 390.038C640.144 405.033 674.43 553.133 577.386 615.35C519.647 652.12 441.773 631.905 406.056 573.843C389.495 546.405 384.591 513.485 392.436 482.411C397.982 459.705 410.839 438.739 428.234 422.385C439.086 412.182 453.59 399.579 466.684 417.485C468.783 420.356 468.617 424.226 468.488 427.703C465.403 438.095 459.088 440.26 451.517 447.196C447.277 451.067 443.438 455.357 440.061 460C426.661 478.522 419.978 503.323 423.8 525.999C427.936 549.571 441.378 570.489 461.101 584.044C501.996 612.611 556.643 603.127 584.971 561.788C598.191 542.134 603.096 518.047 598.614 494.788C591.838 460.286 563.196 432.053 528.986 424.64C520.055 422.705 511.218 424.3 503.548 418.914Z"/><path d="M503.929 461.482C531.908 457.138 558.141 476.211 562.637 504.166C567.132 532.122 548.202 558.458 520.271 563.105C492.126 567.787 465.543 548.679 461.013 520.509C456.483 492.339 475.734 465.86 503.929 461.482Z"/><path fill="#2D5EB9" d="M506.948 496.092C512.774 494.41 519.054 496.003 523.375 500.257C527.695 504.512 529.384 510.767 527.792 516.619C526.2 522.47 521.575 527.007 515.694 528.486C506.816 530.719 497.787 525.425 495.401 516.587C493.015 507.749 498.153 498.63 506.948 496.092Z"/><path d="M442.44 255.139C452.014 254.687 459.613 260.208 460.754 269.921C462.982 288.894 438.397 291.107 425.083 296.56C390.191 310.849 354.055 335.177 331.048 365.346C339.816 372.482 374.226 395.251 378.722 401.909C381.365 405.823 382.473 412.122 381.207 416.69C379.613 422.441 374.9 428.034 371.847 433.136C369.47 437.195 367.254 441.347 365.204 445.581C350.544 475.69 347.598 515.122 354.883 547.709C364.101 587.243 388.09 621.754 421.933 644.17C427.069 647.505 432.403 650.524 437.905 653.211C445.906 657.101 458.374 661.472 459.497 671.442C460.362 679.131 459.84 688.812 459.866 696.676L459.824 732.741C459.767 747.972 463.333 764.817 444.026 768.076C435.066 767.652 427.424 763.948 426.76 754.394C425.172 731.522 426.635 707.513 425.945 684.626C380.466 663.141 345.535 624.273 329.01 576.766C313.72 533.957 313.941 487.139 329.635 444.476C333.351 434.282 338.518 424.594 343.188 414.805C327.526 404.383 311.045 392.335 296.39 381.136C280.362 368.888 302.638 346.855 310.786 337.269C342.999 299.37 394.935 266.413 442.44 255.139Z"/><path d="M821.476 562.108C830.479 561.801 837.776 565.703 840.038 575.062C840.998 579.035 840.276 582.651 839.525 586.509C836.372 602.694 831.457 617.716 825.645 633.133C800.234 701.521 752.679 759.445 690.549 797.687C662.36 815.275 631.686 828.524 599.558 836.991C593.23 838.677 582.675 841.817 576.413 840.008C562.026 835.851 561.38 815.919 574.039 809.175C581.318 806.092 589.641 804.559 597.334 802.527C619.3 796.725 638.155 788.624 658.25 777.995L669.959 771.636C667.071 767.858 661.66 762.662 658.167 759.124C652.705 753.622 647.316 748.048 642 742.405C626.158 752.211 604.5 761.384 586.356 766.324C576.182 769.093 566.862 762.341 564.962 752.19C564.236 748.316 566.251 742.305 568.904 739.288C573.926 733.578 582.69 732.176 589.496 729.524C602.142 725.065 614.328 720.011 625.727 712.921C633.661 707.986 642.643 701.523 652.124 706.851C658.632 710.508 663.848 717.92 669.244 723.044C678.708 732.608 687.49 742.819 697.563 751.77C744.855 716.262 780.036 667.023 798.303 610.776C800.078 605.396 801.667 599.955 803.065 594.464C806.376 580.992 805.224 565.52 821.476 562.108Z"/></svg>